# xmcd CD database file
# Copyright (C) 1993-1996 Ti Kan
#
# Track frame offsets:
#	150
#	26995
#	43807
#	61820
#	81880
#	98037
#	114337
#	136757
#	155327
#
# Disc length: 2421 seconds
#
# Revision: 1
# Processed by: cddbd v1.4b41PL1 Copyright (c) Steve Scherf et al.
# Submitted via: CDValet v3.31 - Copyright (c) 1997 Greg Leichner
#
DISCID=6c097309
DTITLE=Teddy Pendergrass - Greatest Hits
DYEAR=1900
DGENRE=
TTITLE0=Turn Off The Lights
TTITLE1=Love T.K.O.
TTITLE2=I Don't Love You Anymore
TTITLE3=The More I Get, The More I Want
TTITLE4=Only You
TTITLE5=Close The Door
TTITLE6=When Somebody Loves You Back
TTITLE7=You Can't Hide From Yourself
TTITLE8=Come Go With Me
EXTD=
EXTT0=
EXTT1=
EXTT2=
EXTT3=
EXTT4=
EXTT5=
EXTT6=
EXTT7=
EXTT8=
PLAYORDER=
